# xmcd
#
# Track frame offsets: 
#        150
#        16930
#        37166
#        49520
#        64008
#        77653
#        97195
#        111872
#        128567
#        145683
#        162483
#
# Disc length: 2327 seconds
#
# Revision: 1
# Processed by: cddbd v1.5.2PL0 Copyright (c) Steve Scherf et al.
# Submitted via: ExactAudioCopy v0.95b3
#
DISCID=8e09150b
DTITLE=Shelby Lynne - Revelation Road
DYEAR=2011
DGENRE=Country
TTITLE0=Revelation Road
TTITLE1=I'll Hold Your Head
TTITLE2=Even Angels
TTITLE3=Lead Me Love
TTITLE4=The Thief
TTITLE5=Woebegone
TTITLE6=I Want To Go Back
TTITLE7=I Don't Need A Reason To Cry
TTITLE8=Toss It All Aside
TTITLE9=Heaven's Only Days Down The Road
TTITLE10=I Won't Leave You
EXTD=
EXTT0=
EXTT1=
EXTT2=
EXTT3=
EXTT4=
EXTT5=
EXTT6=
EXTT7=
EXTT8=
EXTT9=
EXTT10=
PLAYORDER=
